<svg id="Layer_1" data-name="Layer 1" xmlns="http://www.w3.org/2000/svg" viewBox="0 0 1000 1000"><defs><style>.cls-1{fill:#b3b4b3;}.cls-2{fill:#010101;}.cls-3{fill:#ffc72b;}</style></defs><path class="cls-1" d="M682.7,626.65c0-4.28-2.56-8.27-7.13-11.41,14.26-8.27,24.53-21.68,24.53-38.79V533.37c0-23.67-10.55-41.36-32.23-51.06h32V429.26c0-8,.57-16.26-1.43-24-5.42-19.4-24.24-29.38-41.93-34.8l62.75-77.59H527c8.27,15.69,16.54,31.66,24.81,47.35L537.23,358c-12-.29-23.4-.57-33.38-.57V292.91H367.5l33.95,64.18v.29H280.21l23.4,41.36a41.82,41.82,0,0,0-3.71,17.68v48.49c-.57,24.25,19.39,39.94,39.93,48.21H300.18v63.33c-1.14,48.2,67.89,51.63,101.55,55v11.41l-33.94,64.18H504.14v-71.6c9.12,0,18.54,0,27.67-.28l20,24.53L527,706.81H719.79l-53.63-64.76c9.7-2.28,16.54-8.27,16.54-15.4"/><path class="cls-1" d="M406.58,448.66c-2.85-.58-18.26-3.71-21.68-4.85V441c10-1.14,19.68-2,29.67-2.56v11.69c-3.14-.57-5.71-.85-8-1.42"/><path class="cls-1" d="M602,545.93c4.56.85,9.7,1.71,13.4,3.13v2.57A329.72,329.72,0,0,1,578,555.05l-12.27-14.83c12,2,24,3.71,36.23,5.71"/><path class="cls-2" d="M687,576.45V533.66c0-8-1.42-17.4-4.28-22.25-10.55-17.69-34.23-21.68-52.48-26.24-7.71-1.71-38.23-6.85-74.74-12.84l28-33.94c11.12.57,22,1.71,31.66,3.13v27.67h71.6V416.71c.28-23.11-26.25-31.67-44.79-36.23-2.85-.57-6-1.43-9.13-2l59.34-72.16H548.92c4,7.41,18.54,35.65,18.54,35.65l-24.24,29.38c-17.69-.57-34.52-.85-47.93-.85h-4.85V306h-101l25.1,47.64V370.5H302.75l16,27.95a29.81,29.81,0,0,0-5.7,17.69v48.49c-.29,32.52,47.06,41.93,71.31,47.07,10,1.71,20.25,3.42,30.24,5.13v37.65c-10-.57-20-1.42-29.67-2.56V526.53H313v49.92c-.29,33.37,53.06,37.65,76.73,40.22,8.27.85,16.55,1.71,24.82,2.28v26.81l-25.1,47.64h101V621.8h12.84c11.41,0,22.82,0,34.23-.28l29.67,36.22-18.54,35.37H691.26l-63.9-77.3c26-3.71,59.62-12,59.62-39.36m-109-21.4-12.27-14.83c12,1.71,24,3.71,36.23,5.71,4.56.85,9.7,1.71,13.4,3.13v2.57A342.12,342.12,0,0,1,578,555.05M414.57,438.1v11.7c-2.85-.57-5.71-.86-8-1.14-2.85-.58-18.26-3.71-21.68-4.85V441c9.7-1.42,19.68-2.28,29.67-2.85"/><path class="cls-3" d="M414.57,468.91l-19.68-3.14c-14-2.57-28.81-8.27-28.81-13.69V427.55c0-9.7,81.86-8.85,138.34-8.85l24-29.38c-7.13,0-14.55-.28-22.25-.28H334.7l7.7,13.4c-7.42,3.71-10.84,8.28-10.84,13.7v48.49c0,10.55,17.69,20.54,56.48,28.81l26.53,4.28Z"/><path class="cls-3" d="M598,420.7c20.26,1.14,35.66,3.42,35.66,7.13v22.54h34.23V416.42c0-9.7-17.4-16.83-49.06-21.39Z"/><path class="cls-3" d="M533,500l15.69,19.11L605.11,528c13.7,2.57,28.81,8.28,28.81,13.7v21.1c0,4.85-17.4,7.71-42.21,9.42l21.68,26.53c35.37-4.28,54.76-11.7,54.76-22V533.94c0-8.84-1.14-11.69-1.71-13.12-5.13-8.84-16.26-12.55-67.32-23.1l-57-8.84Z"/><path class="cls-3" d="M366.08,565.32v-20H331.56v31.1c0,18.25,74.16,27.1,174.86,27.1h16l-24-29.39c-31.95,0-132.35,0-132.35-8.84"/><path class="cls-3" d="M652.47,324.86H579.73L590,344.25,471.9,488V437.25c-12.83,0-25.67,0-38.51.28V555.34c12.84.28,25.68.28,38.51.28V511.7L589.71,656l-10,18.83H651.9L508.7,500Z"/><polygon class="cls-3" points="433.11 370.78 471.62 370.78 471.62 324.86 420.27 324.86 433.11 349.39 433.11 370.78"/><path class="cls-3" d="M433.11,650.61l-12.84,24.25h51.35V621.8c-12.84-.28-25.67-.57-38.51-1.42Z"/><path class="cls-2" d="M669.58,626.94a7.13,7.13,0,0,1-7.42,7.13,7.31,7.31,0,0,1-7.41-7.13,7.42,7.42,0,0,1,14.83,0m-12.84,0a5.55,5.55,0,0,0,5.71,5.7,5.71,5.71,0,0,0,0-11.41,5.55,5.55,0,0,0-5.71,5.71m4.28,3.7h-1.71v-7.13c.57,0,1.43-.28,2.85-.28a4.78,4.78,0,0,1,2.57.57,2.13,2.13,0,0,1,.57,1.42,1.82,1.82,0,0,1-1.42,1.72h0a2.87,2.87,0,0,1,1.42,1.71c.29,1.14.29,1.42.57,1.71h-2c-.29-.29-.29-.86-.57-1.71,0-.86-.57-1.14-1.43-1.14H661Zm0-4h.86c.86,0,1.71-.28,1.71-1.14a1.31,1.31,0,0,0-1.43-1.14h-.85v2.28Z"/></svg>