<svg width="20" height="13" viewBox="0 0 20 13" fill="none" xmlns="http://www.w3.org/2000/svg">
<path d="M4.504 10.324C4.376 10.324 4.312 10.216 4.312 10C4.304 9.8 4.308 9.484 4.324 9.052C4.34 8.62 4.348 8.136 4.348 7.6C4.348 7.168 4.336 6.724 4.312 6.268C4.296 5.804 4.256 5.36 4.192 4.936C4.136 4.504 4.052 4.12 3.94 3.784C3.828 3.448 3.68 3.18 3.496 2.98C3.32 2.78 3.104 2.68 2.848 2.68C2.576 2.68 2.336 2.748 2.128 2.884C1.928 3.012 1.74 3.172 1.564 3.364C1.396 3.556 1.224 3.744 1.048 3.928C1 3.984 0.968 4 0.952 3.976C0.928 3.952 0.92 3.924 0.928 3.892C1 3.732 1.12 3.552 1.288 3.352C1.464 3.152 1.66 2.964 1.876 2.788C2.1 2.604 2.328 2.456 2.56 2.344C2.8 2.224 3.016 2.164 3.208 2.164C3.512 2.164 3.772 2.304 3.988 2.584C4.204 2.864 4.376 3.24 4.504 3.712C4.64 4.184 4.736 4.716 4.792 5.308C4.856 5.892 4.888 6.496 4.888 7.12C4.888 8.056 4.832 8.936 4.72 9.76C4.864 9.272 5.036 8.732 5.236 8.14C5.436 7.54 5.668 6.92 5.932 6.28C6.196 5.632 6.488 4.996 6.808 4.372C7.136 3.748 7.492 3.168 7.876 2.632C8.268 2.088 8.692 1.62 9.148 1.228C9.612 0.828 10.104 0.536 10.624 0.352C10.832 0.288 11.02 0.256 11.188 0.256C11.468 0.256 11.712 0.332 11.92 0.483999C12.136 0.628 12.268 0.848 12.316 1.144V1.168C12.316 1.24 12.3 1.312 12.268 1.384C12.244 1.456 12.216 1.492 12.184 1.492C12.136 1.492 12.112 1.408 12.112 1.24C12.112 1.048 12.06 0.884 11.956 0.748C11.852 0.604 11.68 0.532 11.44 0.532C11.296 0.532 11.12 0.568 10.912 0.64C10.304 0.848 9.712 1.236 9.136 1.804C8.568 2.372 8.028 3.072 7.516 3.904C7.004 4.736 6.528 5.664 6.088 6.688C5.648 7.704 5.256 8.776 4.912 9.904C4.88 10.016 4.82 10.112 4.732 10.192C4.652 10.28 4.576 10.324 4.504 10.324ZM18.3382 12.556C17.9222 12.556 17.5302 12.44 17.1622 12.208C16.7942 11.976 16.4542 11.672 16.1422 11.296C15.8382 10.928 15.5622 10.524 15.3142 10.084C15.0742 9.644 14.8622 9.212 14.6782 8.788C14.5022 8.364 14.3582 7.992 14.2462 7.672L14.2342 7.636C14.1222 8.004 14.0102 8.34 13.8982 8.644C13.7862 8.94 13.6902 9.18 13.6102 9.364C13.4102 9.836 13.1502 10.268 12.8302 10.66C12.5182 11.052 12.1782 11.36 11.8102 11.584C11.4422 11.816 11.0742 11.932 10.7062 11.932C10.3462 11.932 10.0022 11.796 9.67422 11.524C9.35422 11.26 9.07822 10.82 8.84622 10.204C8.78222 10.028 8.73822 9.848 8.71422 9.664C8.68222 9.48 8.66622 9.292 8.66622 9.1C8.66622 8.756 8.70622 8.416 8.78622 8.08C8.85822 7.744 8.95822 7.44 9.08622 7.168C9.17422 6.96 9.29822 6.74 9.45822 6.508C9.62622 6.276 9.78622 6.088 9.93822 5.944C9.97822 5.904 10.0342 5.86 10.1062 5.812C10.1862 5.764 10.2382 5.74 10.2622 5.74C10.2702 5.74 10.2742 5.744 10.2742 5.752C10.2742 5.776 10.2062 5.86 10.0702 6.004C9.71822 6.364 9.46222 6.796 9.30222 7.3C9.14222 7.804 9.06222 8.312 9.06222 8.824C9.06222 9.4 9.14622 9.916 9.31422 10.372C9.49822 10.884 9.71022 11.244 9.95022 11.452C10.1902 11.66 10.4462 11.764 10.7182 11.764C10.9742 11.764 11.2302 11.684 11.4862 11.524C11.7422 11.372 11.9822 11.172 12.2062 10.924C12.3902 10.724 12.5782 10.44 12.7702 10.072C12.9702 9.712 13.1622 9.3 13.3462 8.836C13.5382 8.372 13.7102 7.884 13.8622 7.372C14.0542 6.756 14.2062 6.136 14.3182 5.512C14.4382 4.88 14.4982 4.308 14.4982 3.796C14.4982 3.444 14.4662 3.132 14.4022 2.86C14.3382 2.588 14.2382 2.368 14.1022 2.2C14.0222 2.112 13.9342 2.068 13.8382 2.068C13.7422 2.068 13.6462 2.108 13.5502 2.188C13.4062 2.292 13.2742 2.456 13.1542 2.68C13.0422 2.904 12.9422 3.156 12.8542 3.436C12.7662 3.716 12.6982 4.004 12.6502 4.3C12.6022 4.596 12.5782 4.872 12.5782 5.128C12.5782 5.312 12.5942 5.48 12.6262 5.632C12.6582 5.784 12.7022 5.904 12.7582 5.992C12.8302 6.096 12.9062 6.148 12.9862 6.148C13.0182 6.148 13.0462 6.144 13.0702 6.136C13.1022 6.128 13.1262 6.124 13.1422 6.124C13.1822 6.124 13.2022 6.136 13.2022 6.16C13.2022 6.184 13.1702 6.208 13.1062 6.232C13.0502 6.256 12.9782 6.268 12.8902 6.268C12.8262 6.268 12.7622 6.256 12.6982 6.232C12.5222 6.16 12.3942 6.024 12.3142 5.824C12.2422 5.616 12.2062 5.376 12.2062 5.104C12.2062 4.784 12.2502 4.444 12.3382 4.084C12.4342 3.724 12.5622 3.384 12.7222 3.064C12.8822 2.744 13.0622 2.484 13.2622 2.284C13.4622 2.076 13.6702 1.972 13.8862 1.972C14.0382 1.972 14.1902 2.036 14.3422 2.164C14.5502 2.34 14.6982 2.588 14.7862 2.908C14.8742 3.22 14.9182 3.572 14.9182 3.964C14.9182 4.428 14.8662 4.932 14.7622 5.476C14.6662 6.012 14.5502 6.528 14.4142 7.024C14.7342 6.44 15.1182 5.912 15.5662 5.44C16.0222 4.96 16.5222 4.58 17.0662 4.3C17.6182 4.012 18.1942 3.868 18.7942 3.868C18.9542 3.868 19.1182 3.88 19.2862 3.904C19.4622 3.928 19.6342 3.968 19.8022 4.024C19.8822 4.048 19.9222 4.108 19.9222 4.204C19.9222 4.276 19.8982 4.34 19.8502 4.396C19.8102 4.452 19.7542 4.468 19.6822 4.444C19.4102 4.364 19.1262 4.324 18.8302 4.324C18.3902 4.324 17.9542 4.412 17.5222 4.588C17.0902 4.756 16.6782 4.988 16.2862 5.284C15.8942 5.572 15.5342 5.904 15.2062 6.28C14.8862 6.648 14.6182 7.036 14.4022 7.444L14.3902 7.48L14.4382 7.588C14.5422 7.82 14.6862 8.088 14.8702 8.392C15.0542 8.688 15.2622 9 15.4942 9.328C15.7342 9.656 15.9782 9.972 16.2262 10.276C16.4742 10.588 16.7182 10.868 16.9582 11.116C17.1982 11.364 17.4142 11.556 17.6062 11.692C17.7502 11.796 17.9182 11.9 18.1102 12.004C18.3102 12.116 18.5062 12.172 18.6982 12.172C18.9622 12.172 19.1382 12.064 19.2262 11.848C19.3222 11.632 19.3702 11.412 19.3702 11.188C19.3702 10.932 19.3302 10.68 19.2502 10.432C19.1702 10.184 19.0582 9.956 18.9142 9.748C18.8902 9.708 18.8782 9.684 18.8782 9.676C18.8782 9.652 18.8902 9.64 18.9142 9.64C18.9542 9.64 19.0022 9.668 19.0582 9.724C19.2182 9.916 19.3462 10.14 19.4422 10.396C19.5382 10.652 19.5862 10.908 19.5862 11.164C19.5862 11.556 19.4742 11.884 19.2502 12.148C19.0262 12.42 18.7222 12.556 18.3382 12.556Z" fill="#282C4A"/>
</svg>
