<svg width="40" height="12" viewBox="0 0 40 12" fill="none" xmlns="http://www.w3.org/2000/svg">
<path d="M7.86914 1.46484L7.17773 1.59375L4.48828 9.19336H3.57422L0.826172 1.58203L0.117188 1.46484V0.949219H2.98828V1.46484L2.2793 1.52344C2.24414 1.52734 2.2168 1.54883 2.19727 1.58789C2.17773 1.62695 2.16797 1.66406 2.16797 1.69922C2.16797 1.71875 2.16992 1.73242 2.17383 1.74023L4.2832 7.66992L6.31055 1.76367C6.31445 1.75586 6.31641 1.74219 6.31641 1.72266C6.31641 1.67969 6.29883 1.63672 6.26367 1.59375C6.22852 1.55078 6.18945 1.52734 6.14648 1.52344L5.48438 1.46484V0.949219H7.86914V1.46484ZM14.1094 6.11719C14.1094 6.68359 13.9922 7.19727 13.7578 7.6582C13.5234 8.11523 13.1914 8.47852 12.7617 8.74805C12.3359 9.01367 11.8301 9.14648 11.2441 9.14648C10.6621 9.14648 10.1582 9.01367 9.73242 8.74805C9.30664 8.48242 8.97852 8.12109 8.74805 7.66406C8.51758 7.20703 8.40234 6.69141 8.40234 6.11719C8.40234 5.54688 8.51758 5.03125 8.74805 4.57031C8.98242 4.10938 9.31445 3.74414 9.74414 3.47461C10.1777 3.20508 10.6895 3.07031 11.2793 3.07031C11.877 3.07031 12.3867 3.20703 12.8086 3.48047C13.2305 3.75391 13.5527 4.12109 13.7754 4.58203C13.998 5.04297 14.1094 5.55469 14.1094 6.11719ZM12.8613 6.10547C12.8613 5.66797 12.8027 5.25977 12.6855 4.88086C12.5723 4.50195 12.3965 4.19531 12.1582 3.96094C11.9238 3.72656 11.627 3.60938 11.2676 3.60938C10.8965 3.60938 10.5918 3.72656 10.3535 3.96094C10.1191 4.19531 9.94531 4.50195 9.83203 4.88086C9.71875 5.25977 9.66211 5.66797 9.66211 6.10547C9.66211 6.53906 9.71875 6.94727 9.83203 7.33008C9.94922 7.70898 10.125 8.01562 10.3594 8.25C10.5977 8.48438 10.8965 8.60156 11.2559 8.60156C11.623 8.60156 11.9238 8.48438 12.1582 8.25C12.3965 8.01562 12.5723 7.70898 12.6855 7.33008C12.8027 6.95117 12.8613 6.54297 12.8613 6.10547ZM21.082 9H18.4336V8.53125L18.9375 8.49609C19.0078 8.48828 19.0664 8.46094 19.1133 8.41406C19.1641 8.36719 19.1895 8.30664 19.1895 8.23242V5.10938C19.1895 4.73047 19.1016 4.44336 18.9258 4.24805C18.75 4.04883 18.4531 3.94922 18.0352 3.94922C17.8086 3.94922 17.582 3.98242 17.3555 4.04883C17.1328 4.11133 16.9199 4.19336 16.7168 4.29492V8.23242C16.7168 8.39648 16.8008 8.48438 16.9688 8.49609L17.4727 8.53125V9H14.7598V8.53125L15.3457 8.49609C15.5137 8.48438 15.5977 8.39648 15.5977 8.23242V4.06641H14.7598V3.67383L16.2246 3.2168H16.7168V3.81445C17.0527 3.62305 17.3965 3.45117 17.748 3.29883C18.1035 3.14648 18.4199 3.07031 18.6973 3.07031C19.2207 3.07031 19.6191 3.23438 19.8926 3.5625C20.166 3.88672 20.3027 4.33984 20.3027 4.92188V8.23242C20.3027 8.30664 20.3262 8.36719 20.373 8.41406C20.4238 8.46094 20.4844 8.48828 20.5547 8.49609L21.082 8.53125V9ZM27.4219 4.01953H26.2266C26.3164 4.16406 26.3926 4.32227 26.4551 4.49414C26.5176 4.66602 26.5488 4.86719 26.5488 5.09766C26.5488 5.49609 26.4395 5.83789 26.2207 6.12305C26.002 6.4043 25.7129 6.62109 25.3535 6.77344C24.998 6.92578 24.6113 7.00195 24.1934 7.00195C24.1543 7.00195 24.1152 7.00195 24.0762 7.00195C24.0371 7.00195 23.998 7 23.959 6.99609C23.9082 7.07812 23.873 7.16602 23.8535 7.25977C23.8379 7.35352 23.8301 7.44141 23.8301 7.52344C23.8301 7.59766 23.834 7.66016 23.8418 7.71094C23.8496 7.76172 23.8555 7.79102 23.8594 7.79883L24.0293 7.81641C24.3105 7.84375 24.625 7.88281 24.9727 7.93359C25.3242 7.98438 25.6621 8.06641 25.9863 8.17969C26.3145 8.29297 26.584 8.45312 26.7949 8.66016C27.0059 8.86719 27.1113 9.14062 27.1113 9.48047C27.1113 9.85938 26.9727 10.2207 26.6953 10.5645C26.418 10.9121 26.043 11.1953 25.5703 11.4141C25.1016 11.6367 24.5762 11.748 23.9941 11.748C23.2793 11.748 22.7246 11.584 22.3301 11.2559C21.9355 10.9316 21.7383 10.5273 21.7383 10.043C21.7383 9.69531 21.8418 9.38477 22.0488 9.11133C22.2559 8.8418 22.5762 8.66797 23.0098 8.58984C22.9668 8.46484 22.9355 8.375 22.916 8.32031C22.8965 8.26562 22.8867 8.17188 22.8867 8.03906C22.8867 7.88281 22.9336 7.71094 23.0273 7.52344C23.125 7.33203 23.2793 7.12891 23.4902 6.91406C23.0918 6.82422 22.7441 6.62305 22.4473 6.31055C22.1504 5.99414 22.002 5.59375 22.002 5.10938C22.002 4.48047 22.2227 3.98438 22.6641 3.62109C23.1094 3.25391 23.6914 3.07031 24.4102 3.07031C24.6953 3.07031 24.959 3.11328 25.2012 3.19922C25.4473 3.28125 25.6484 3.35938 25.8047 3.43359H27.4219V4.01953ZM25.4062 5.02734C25.4062 4.77344 25.3633 4.53516 25.2773 4.3125C25.1914 4.08984 25.0664 3.91016 24.9023 3.77344C24.7383 3.63281 24.5352 3.5625 24.293 3.5625C23.957 3.5625 23.6816 3.69336 23.4668 3.95508C23.2559 4.21289 23.1504 4.57422 23.1504 5.03906C23.1504 5.44141 23.2461 5.78711 23.4375 6.07617C23.6289 6.36133 23.9141 6.50391 24.293 6.50391C24.6523 6.50391 24.9277 6.35938 25.1191 6.07031C25.3105 5.78125 25.4062 5.43359 25.4062 5.02734ZM26.0801 9.80273C26.0801 9.55273 25.9922 9.35938 25.8164 9.22266C25.6445 9.08594 25.4297 8.98438 25.1719 8.91797C24.9141 8.85156 24.6543 8.80469 24.3926 8.77734C24.1309 8.74609 23.9102 8.71289 23.7305 8.67773C23.3828 8.80273 23.1426 8.97266 23.0098 9.1875C22.8809 9.40234 22.8164 9.60742 22.8164 9.80273C22.8164 9.99414 22.8711 10.1973 22.9805 10.4121C23.0938 10.6309 23.2656 10.8164 23.4961 10.9688C23.7305 11.1211 24.0273 11.1973 24.3867 11.1973C24.7695 11.1973 25.0859 11.1211 25.3359 10.9688C25.5859 10.8164 25.7715 10.6309 25.8926 10.4121C26.0176 10.1973 26.0801 9.99414 26.0801 9.80273ZM33.5391 9H31.7637L31.6055 8.29102C31.6055 8.29102 31.5449 8.33398 31.4238 8.41992C31.3066 8.50586 31.1504 8.60547 30.9551 8.71875C30.7598 8.83203 30.543 8.93164 30.3047 9.01758C30.0703 9.10352 29.8359 9.14648 29.6016 9.14648C29.168 9.14648 28.7988 9.00195 28.4941 8.71289C28.1934 8.42383 28.043 8.02734 28.043 7.52344C28.043 7.30078 28.082 7.09375 28.1602 6.90234C28.2422 6.71094 28.4023 6.5293 28.6406 6.35742C28.8828 6.18164 29.2402 6.01172 29.7129 5.84766C30.1895 5.67969 30.8203 5.50977 31.6055 5.33789V4.82227C31.6055 4.0332 31.2324 3.63867 30.4863 3.63867C30.2793 3.63867 30.0996 3.6582 29.9473 3.69727C29.7988 3.73633 29.6953 3.76758 29.6367 3.79102V4.83398H28.7637C28.6543 4.83398 28.5527 4.81445 28.459 4.77539C28.3652 4.73242 28.3184 4.63672 28.3184 4.48828C28.3184 4.16016 28.4434 3.89258 28.6934 3.68555C28.9434 3.47461 29.2598 3.32031 29.6426 3.22266C30.0293 3.12109 30.4199 3.07031 30.8145 3.07031C31.3105 3.07031 31.6953 3.14844 31.9688 3.30469C32.2422 3.45703 32.4336 3.66992 32.543 3.94336C32.6523 4.21289 32.707 4.52148 32.707 4.86914V8.23242C32.707 8.30664 32.7305 8.36719 32.7773 8.41406C32.8281 8.46094 32.8887 8.48828 32.959 8.49609L33.5391 8.53125V9ZM31.6055 7.86914V5.79492C31.0664 5.92773 30.6367 6.0625 30.3164 6.19922C30 6.33203 29.7637 6.4668 29.6074 6.60352C29.4512 6.73633 29.3477 6.87305 29.2969 7.01367C29.25 7.15039 29.2266 7.29297 29.2266 7.44141C29.2266 7.6875 29.3047 7.91602 29.4609 8.12695C29.6211 8.33398 29.8438 8.4375 30.1289 8.4375C30.2891 8.4375 30.4551 8.41016 30.627 8.35547C30.7988 8.29688 30.959 8.23047 31.1074 8.15625C31.2559 8.07812 31.375 8.01172 31.4648 7.95703C31.5586 7.89844 31.6055 7.86914 31.6055 7.86914ZM36.3516 1.23633C36.3516 1.43945 36.2812 1.61523 36.1406 1.76367C36 1.9082 35.8281 1.98047 35.625 1.98047C35.4219 1.98047 35.2461 1.9082 35.0977 1.76367C34.9531 1.61523 34.8809 1.43945 34.8809 1.23633C34.8809 1.0293 34.9531 0.855469 35.0977 0.714844C35.2461 0.574219 35.4219 0.503906 35.625 0.503906C35.8281 0.503906 36 0.574219 36.1406 0.714844C36.2812 0.855469 36.3516 1.0293 36.3516 1.23633ZM36.9668 9H34.1484V8.53125L34.7344 8.49609C34.9023 8.48438 34.9863 8.39648 34.9863 8.23242V3.94922H34.1602V3.52734L35.625 3.07031H36.0996V8.23242C36.0996 8.30664 36.123 8.36719 36.1699 8.41406C36.2207 8.46094 36.2812 8.48828 36.3516 8.49609L36.9668 8.53125V9ZM39.9375 8.07422C39.9375 8.33203 39.8477 8.55078 39.668 8.73047C39.4922 8.91016 39.2754 9 39.0176 9C38.7559 9 38.5352 8.91016 38.3555 8.73047C38.1797 8.55078 38.0918 8.33203 38.0918 8.07422C38.0918 7.81641 38.1797 7.59961 38.3555 7.42383C38.5352 7.24414 38.7559 7.1543 39.0176 7.1543C39.2754 7.1543 39.4922 7.24414 39.668 7.42383C39.8477 7.59961 39.9375 7.81641 39.9375 8.07422Z" fill="#282C4A"/>
</svg>
